# xmcd CD database file
#
# Track frame offsets:
#	150
#	16112
#	33224
#	51833
#	67646
#	83782
#	100915
#	118814
#	136901
#	152703
#	168247
#	184676
#	201460
#	216022
#	238268
#	253791
#	281777
#	297948
#
# Disc length: 4190 seconds
#
# Revision: 0
# Processed by: cddbd v1.5.2PL0 Copyright (c) Steve Scherf et al.
# Submitted via: CDex 1.70beta2
#
DISCID=00105c12
DTITLE=TM Studios - Smooth Jazz 031 - 7/21/08
DYEAR=1900
DGENRE=Jazz
TTITLE0=Adele  - Chasing Pavements 
TTITLE1=Kenny G  - Tango [Radio Edit]
TTITLE2=Steve Winwood  - Fly [Radio Edit]
TTITLE3=Carly Simon  - Hold Out Your Heart 
TTITLE4=Paul Taylor   - Streamline [Radio Edit]
TTITLE5=Warren Hill   - La Dolce Vita [Radio Edit]
TTITLE6=Syesha Mercado and Boney James   - Gonna Get It 
TTITLE7=Jimmy Sommers Feat. Vikter Duplaix   - If I Knew 
TTITLE8=Tom Scott And Special Guests   - Jive Samba [Radio Edit]
TTITLE9=Al Green Feat. John Legend - Stay With Me (By The Sea) [Album Version]
TTITLE10=Antonio Allen  - Just For You (The Whistle Song) [Remix]
TTITLE11=Rick Braun and Richard Elliot   - Que Paso [Radio Edit]
TTITLE12=Gerald Albright  - Knock On Wood [Radio Edit]
TTITLE13=Najee  - Out Of A Dream [Album Version]
TTITLE14=Mick Hucknall  - Farther Up The Road [Album Version]
TTITLE15=Incognito   - N.O.T. [Album Version]
TTITLE16=Shilts   - Back On The Hudson 
TTITLE17=Nick Colionne  - No Limits
EXTD=
EXTT0=
EXTT1=
EXTT2=
EXTT3=
EXTT4=
EXTT5=
EXTT6=
EXTT7=
EXTT8=
EXTT9=
EXTT10=
EXTT11=
EXTT12=
EXTT13=
EXTT14=
EXTT15=
EXTT16=
EXTT17=
PLAYORDER=
